<svg xmlns="http://www.w3.org/2000/svg" width="640" height="640">
  <text x="82" y="468.5" style="line-height:125%" font-family="sans-serif" font-size="40" font-weight="400" letter-spacing="0" word-spacing="0">
    <tspan style="-inkscape-font-specification:'Tahoma Bold'" x="82" y="468.5" fill="#fff" font-family="Tahoma" font-size="375" font-weight="700">A</tspan>
  </text>
  <text x="247.4" y="468.8" style="line-height:125%" fill="#0098fd" font-family="sans-serif" font-size="40" font-weight="400" letter-spacing="0" word-spacing="0">
    <tspan style="-inkscape-font-specification:'Tahoma Bold'" x="247.4" y="468.8" font-family="Tahoma" font-size="375" font-weight="700">M</tspan>
  </text>
  <path fill="#fdfdfd" d="M110.8 381.6l45.9-136L173 197h75l14.6 43.1 45.9 136 31.3 92.8h-69.8l-4-12.9c-2-7-5.8-19.4-8.3-27.5l-4.5-14.6h-86.6L162 429l-8.4 27.5-3.8 12.1H81.4l29.4-87.1zm126.7-18.8c0-2-27-87.8-27.6-87.8-.6 0-27.5 85.8-27.4 87.8 0 1.2 55 1.2 55 0z"/>
</svg>
