<?xml version="1.0" encoding="UTF-8" standalone="no"?>
<svg
   xmlns:dc="http://purl.org/dc/elements/1.1/"
   xmlns:cc="http://creativecommons.org/ns#"
   xmlns:rdf="http://www.w3.org/1999/02/22-rdf-syntax-ns#"
   xmlns:svg="http://www.w3.org/2000/svg"
   xmlns="http://www.w3.org/2000/svg"
   enable-background="new"
   viewBox="0 0 640 640"
   height="640"
   width="640"
   version="1.1"
   id="svg3423">
  <metadata
     id="metadata3429">
    <rdf:RDF>
      <cc:Work
         rdf:about="">
        <dc:format>image/svg+xml</dc:format>
        <dc:type
           rdf:resource="http://purl.org/dc/dcmitype/StillImage" />
        <dc:title></dc:title>
      </cc:Work>
    </rdf:RDF>
  </metadata>
  <defs
     id="defs3427" />
  <g
     style="display:inline"
     id="layer1">
    <text
       id="text3659"
       y="468.52661"
       x="82.024391"
       style="font-style:normal;font-weight:normal;font-size:40px;line-height:125%;font-family:sans-serif;letter-spacing:0px;word-spacing:0px;fill:#000000;fill-opacity:1;stroke:none;stroke-width:1px;stroke-linecap:butt;stroke-linejoin:miter;stroke-opacity:1"
       xml:space="preserve"><tspan
         style="font-style:normal;font-variant:normal;font-weight:bold;font-stretch:normal;font-size:375px;font-family:Tahoma;-inkscape-font-specification:'Tahoma Bold';fill:#ffffff;fill-opacity:1"
         y="468.52661"
         x="82.024391"
         id="tspan3661">A</tspan></text>
    <text
       id="text4471"
       y="468.75"
       x="247.375"
       style="font-style:normal;font-weight:normal;font-size:40px;line-height:125%;font-family:sans-serif;letter-spacing:0px;word-spacing:0px;fill:#0098fd;fill-opacity:1;stroke:none;stroke-width:1px;stroke-linecap:butt;stroke-linejoin:miter;stroke-opacity:1"
       xml:space="preserve"><tspan
         style="font-style:normal;font-variant:normal;font-weight:bold;font-stretch:normal;font-size:375px;font-family:Tahoma;-inkscape-font-specification:'Tahoma Bold';fill:#0098fd;fill-opacity:1"
         y="468.75"
         x="247.375"
         id="tspan4473">M</tspan></text>
    <path
       id="path3649"
       d="m 110.81063,381.5625 c 16.19551,-47.95313 36.84168,-109.125 45.88038,-135.9375 l 16.43399,-48.75 37.5,0 37.5,0 14.57017,43.125 c 8.0136,23.71875 28.66302,84.89062 45.88759,135.9375 l 31.31741,92.8125 -34.89641,0 -34.8964,0 -3.91327,-12.8125 c -2.1523,-7.04688 -5.93712,-19.42188 -8.4107,-27.5 l -4.49742,-14.6875 -43.28597,0 -43.28598,0 -4.6994,15.3125 c -2.58466,8.42187 -6.389,20.79687 -8.45407,27.5 l -3.75469,12.1875 -34.22081,0 -34.220815,0 29.446385,-87.1875 z m 126.69053,-18.75 c 0.002,-2.06591 -26.92496,-87.81244 -27.5763,-87.81248 -0.66579,-2e-5 -27.50157,85.84868 -27.44965,87.81248 0.0324,1.22595 55.02443,1.22595 55.02595,0 z"
       style="display:inline;fill:#fdfdfd" />
  </g>
  <flowRoot
     style="fill:black;stroke:none;stroke-opacity:1;stroke-width:1px;stroke-linejoin:miter;stroke-linecap:butt;fill-opacity:1;font-family:sans-serif;font-style:normal;font-weight:normal;font-size:40px;line-height:125%;letter-spacing:0px;word-spacing:0px"
     id="flowRoot3651"
     xml:space="preserve"><flowRegion
       id="flowRegion3653"><rect
         y="171.1882"
         x="127.98633"
         height="354.96759"
         width="241.83052"
         id="rect3655" /></flowRegion><flowPara
       id="flowPara3657"></flowPara></flowRoot>  <g
     style="display:inline"
     id="layer2" />
  <g
     style="display:none"
     id="layer4" />
  <g
     style="display:none"
     id="layer3">
    <g
       id="g3643">
      <path
         id="path3647"
         d="m 483.44578,379.24596 -0.32078,-89.50403 -24.00188,57.31653 -24.00187,57.31654 -23.24625,0 -23.24625,0 -24.00187,-57.31654 -24.00188,-57.31655 -0.38469,89.19155 -0.38467,89.19154 -32.74033,-96.875 -32.74031,-96.875 0.34689,-39.0625 0.34689,-39.0625 39.65311,0.0125 39.65311,0.0125 29.375,66.8357 c 16.15625,36.75964 29.65625,66.83697 30,66.83853 0.34375,10e-4 13.83609,-30.08003 29.98297,-66.84793 l 29.35797,-66.8513 39.70453,0 39.70453,0 0,136.25 0,136.25 -34.36672,0 -34.36673,0 -0.32077,-89.50404 z"
         style="fill:#0098fd" />
      <path
         id="path3645"
         d="M 0,320 0,0 l 320,0 320,0 0,320 0,320 -320,0 -320,0 0,-320 z m 154.22187,134.6875 c 2.39845,-7.73438 6.19857,-20.10938 8.44472,-27.5 l 4.08391,-13.4375 43.2495,0 43.2495,0 4.0707,13.4375 c 2.23889,7.39062 6.0271,19.76562 8.41826,27.5 l 4.34755,14.0625 34.94873,0 34.94871,0 0.32077,-89.50404 0.32078,-89.50403 24.00188,57.31653 24.00187,57.31654 23.24625,0 23.24625,0 24.00187,-57.31654 24.00188,-57.31653 0.32078,89.50403 0.32077,89.50404 34.36673,0 34.36672,0 0,-136.25 0,-136.25 -39.70453,0 -39.70453,0 -29.35797,66.85074 c -16.14688,36.7679 -29.63922,66.84947 -29.98297,66.84792 -0.34375,-0.001 -13.84375,-30.07889 -30,-66.83852 l -29.375,-66.8357 -39.66969,-0.0125 -39.6697,-0.0119 -0.3303,39.0625 -0.33031,39.0625 -13.125,-39.06188 -13.125,-39.06186 -37.5,0.0112 -37.5,0.0113 L 127.5,331.41245 C 102.40625,405.73839 81.6875,467.0454 81.458334,467.65026 81.224776,468.2667 96.163491,468.75 115.45137,468.75 l 34.4097,0 4.3608,-14.0625 z M 182.5,362.84471 c 0,-1.97161 26.85669,-87.84386 27.4695,-87.83168 0.51174,0.01 24.75609,77.01261 27.24902,86.54559 0.5334,2.03973 -1.34018,2.19138 -27.07273,2.19138 -15.20519,0 -27.64579,-0.40738 -27.64579,-0.90529 z"
         style="fill:#18202c" />
    </g>
  </g>
</svg>
